<svg xmlns="http://www.w3.org/2000/svg" xmlns:xlink="http://www.w3.org/1999/xlink" fill="none" version="1.1" width="24" height="24" viewBox="0 0 24 24"><g><g><g><g><path d="M8.910000381469727,20.669999980926512C8.720000381469726,20.669999980926512,8.530000381469726,20.599999980926512,8.380000381469726,20.449999980926513C8.090000381469727,20.159999980926514,8.090000381469727,19.679999980926514,8.380000381469726,19.389999980926515C8.380000381469726,19.389999980926515,14.900000381469727,12.869999980926513,14.900000381469727,12.869999980926513C15.380000381469728,12.389999980926513,15.380000381469728,11.609999980926514,14.900000381469727,11.129999980926513C14.900000381469727,11.129999980926513,8.380000381469726,4.6099999809265135,8.380000381469726,4.6099999809265135C8.090000381469727,4.3199999809265135,8.090000381469727,3.8399999809265135,8.380000381469726,3.5499999809265135C8.670000381469727,3.259999980926514,9.149999381469726,3.259999980926514,9.440000381469726,3.5499999809265135C9.440000381469726,3.5499999809265135,15.960000381469726,10.069999980926514,15.960000381469726,10.069999980926514C16.470000381469724,10.579999980926512,16.760000381469727,11.269999980926514,16.760000381469727,11.999999980926514C16.760000381469727,12.729999980926515,16.48000038146973,13.419999980926514,15.960000381469726,13.929999980926514C15.960000381469726,13.929999980926514,9.440000381469726,20.449999980926513,9.440000381469726,20.449999980926513C9.290000381469726,20.589999980926514,9.100000381469727,20.669999980926512,8.910000381469727,20.669999980926512C8.910000381469727,20.669999980926512,8.910000381469727,20.669999980926512,8.910000381469727,20.669999980926512Z" fill="#292D32" fill-opacity="1"/></g><g style="opacity:0;"></g></g></g></g></svg>