<svg xmlns="http://www.w3.org/2000/svg" xmlns:xlink="http://www.w3.org/1999/xlink" fill="none" version="1.1" width="24" height="24" viewBox="0 0 24 24"><defs><clipPath id="master_svg0_0_2024"><rect x="0" y="0" width="24" height="24" rx="0"/></clipPath></defs><g clip-path="url(#master_svg0_0_2024)"><g><path d="M14.292890953674316,19.707100953674317C14.683420953674316,20.097600953674316,15.316580953674316,20.097600953674316,15.707110953674317,19.707100953674317C16.09763095367432,19.316600953674318,16.09763095367432,18.683400953674315,15.707110953674317,18.292900953674316C15.707110953674317,18.292900953674316,14.292890953674316,19.707100953674317,14.292890953674316,19.707100953674317C14.292890953674316,19.707100953674317,14.292890953674316,19.707100953674317,14.292890953674316,19.707100953674317ZM7.999999953674316,12.000000953674316C7.999999953674316,12.000000953674316,7.292892953674317,11.292890953674316,7.292892953674317,11.292890953674316C6.902370253674317,11.683420953674316,6.902370253674317,12.316580953674316,7.292892953674317,12.707110953674317C7.292892953674317,12.707110953674317,7.999999953674316,12.000000953674316,7.999999953674316,12.000000953674316C7.999999953674316,12.000000953674316,7.999999953674316,12.000000953674316,7.999999953674316,12.000000953674316ZM15.707110953674317,5.7071109536743165C16.09763095367432,5.3165809536743165,16.09763095367432,4.683416953674317,15.707110953674317,4.292892953674317C15.316580953674316,3.9023702536743166,14.683420953674316,3.9023702536743166,14.292890953674316,4.292892953674317C14.292890953674316,4.292892953674317,15.707110953674317,5.7071109536743165,15.707110953674317,5.7071109536743165C15.707110953674317,5.7071109536743165,15.707110953674317,5.7071109536743165,15.707110953674317,5.7071109536743165ZM15.707110953674317,18.292900953674316C15.707110953674317,18.292900953674316,8.707110953674317,11.292890953674316,8.707110953674317,11.292890953674316C8.707110953674317,11.292890953674316,7.292892953674317,12.707110953674317,7.292892953674317,12.707110953674317C7.292892953674317,12.707110953674317,14.292890953674316,19.707100953674317,14.292890953674316,19.707100953674317C14.292890953674316,19.707100953674317,15.707110953674317,18.292900953674316,15.707110953674317,18.292900953674316C15.707110953674317,18.292900953674316,15.707110953674317,18.292900953674316,15.707110953674317,18.292900953674316ZM8.707110953674317,12.707110953674317C8.707110953674317,12.707110953674317,15.707110953674317,5.7071109536743165,15.707110953674317,5.7071109536743165C15.707110953674317,5.7071109536743165,14.292890953674316,4.292892953674317,14.292890953674316,4.292892953674317C14.292890953674316,4.292892953674317,7.292892953674317,11.292890953674316,7.292892953674317,11.292890953674316C7.292892953674317,11.292890953674316,8.707110953674317,12.707110953674317,8.707110953674317,12.707110953674317C8.707110953674317,12.707110953674317,8.707110953674317,12.707110953674317,8.707110953674317,12.707110953674317Z" fill="#FFFFFF" fill-opacity="1"/></g></g></svg>