<svg xmlns="http://www.w3.org/2000/svg" xmlns:xlink="http://www.w3.org/1999/xlink" fill="none" version="1.1" width="24" height="24" viewBox="0 0 24 24"><defs><clipPath id="master_svg0_0_636"><rect x="0" y="0" width="24" height="24" rx="0"/></clipPath></defs><g clip-path="url(#master_svg0_0_636)"><g><path d="M5,16C4.447715,16,4,16.447715,4,17C4,17.55228,4.447715,18,5,18C5,18,5,16,5,16C5,16,5,16,5,16ZM19,18C19.552300000000002,18,20,17.55228,20,17C20,16.447715,19.552300000000002,16,19,16C19,16,19,18,19,18C19,18,19,18,19,18ZM5,18C5,18,19,18,19,18C19,18,19,16,19,16C19,16,5,16,5,16C5,16,5,18,5,18C5,18,5,18,5,18Z" fill="#FFFFFF" fill-opacity="1"/></g><g><path d="M5,11C4.447715,11,4,11.447715,4,12C4,12.55228,4.447715,13,5,13C5,13,5,11,5,11C5,11,5,11,5,11ZM19,13C19.552300000000002,13,20,12.55228,20,12C20,11.447715,19.552300000000002,11,19,11C19,11,19,13,19,13C19,13,19,13,19,13ZM5,13C5,13,19,13,19,13C19,13,19,11,19,11C19,11,5,11,5,11C5,11,5,13,5,13C5,13,5,13,5,13Z" fill="#FFFFFF" fill-opacity="1"/></g><g><path d="M5,6C4.447715,6,4,6.447715,4,7C4,7.55228,4.447715,8,5,8C5,8,5,6,5,6C5,6,5,6,5,6ZM19,8C19.552300000000002,8,20,7.55228,20,7C20,6.447715,19.552300000000002,6,19,6C19,6,19,8,19,8C19,8,19,8,19,8ZM5,8C5,8,19,8,19,8C19,8,19,6,19,6C19,6,5,6,5,6C5,6,5,8,5,8C5,8,5,8,5,8Z" fill="#FFFFFF" fill-opacity="1"/></g></g></svg>