<svg xmlns="http://www.w3.org/2000/svg" xmlns:xlink="http://www.w3.org/1999/xlink" fill="none" version="1.1" width="24" height="24" viewBox="0 0 24 24"><defs><clipPath id="master_svg0_0_8906"><rect x="0" y="0" width="24" height="24" rx="0"/></clipPath></defs><g clip-path="url(#master_svg0_0_8906)"><g><g><path d="M11,14C11,14,13,14,13,14C14.65685,14,16,12.6569,16,11C16,11,16,4,16,4C16,2.34315,14.65685,1,13,1C13,1,11,1,11,1C9.34315,1,8,2.34315,8,4C8,4,8,11,8,11C8,12.6569,9.34315,14,11,14ZM14,4C14,4,14,11,14,11C14,11.5523,13.55228,12,13,12C13,12,11,12,11,12C10.44772,12,10,11.5523,10,11C10,11,10,4,10,4C10,3.44772,10.44772,3,11,3C11,3,13,3,13,3C13.55228,3,14,3.44772,14,4Z" fill-rule="evenodd" fill="#000000" fill-opacity="1"/></g><g><path d="M5,11.5C5,14.537569999999999,7.4624299999999995,17,10.5,17C10.5,17,13.5,17,13.5,17C16.537599999999998,17,19,14.537569999999999,19,11.5C19,11.5,19,9,19,9C19,9,17,9,17,9C17,9,17,11.5,17,11.5C17,13.433,15.433,15,13.5,15C13.5,15,10.5,15,10.5,15C8.567,15,7,13.433,7,11.5C7,11.5,7,9,7,9C7,9,5,9,5,9C5,9,5,11.5,5,11.5Z" fill-rule="evenodd" fill="#000000" fill-opacity="1"/></g><g><path d="M10,21C10,21,10,23,10,23C10,23,14,23,14,23C14,23,14,21,14,21C14,21,10,21,10,21Z" fill-rule="evenodd" fill="#000000" fill-opacity="1"/></g><g><path d="M13,16C13,16,11,16,11,16C11,16,11,22,11,22C11,22,13,22,13,22C13,22,13,16,13,16Z" fill-rule="evenodd" fill="#000000" fill-opacity="1"/></g></g></g></svg>