<svg xmlns="http://www.w3.org/2000/svg" xmlns:xlink="http://www.w3.org/1999/xlink" fill="none" version="1.1" width="24" height="24" viewBox="0 0 24 24"><defs><clipPath id="master_svg0_0_460"><rect x="0" y="0" width="24" height="24" rx="0"/></clipPath></defs><g clip-path="url(#master_svg0_0_460)"><g><path d="M19,12C19,15.866,15.866,19,12,19C12,19,12,21,12,21C16.970599999999997,21,21,16.970599999999997,21,12C21,12,19,12,19,12C19,12,19,12,19,12ZM12,19C8.13401,19,5,15.866,5,12C5,12,3,12,3,12C3,16.970599999999997,7.02944,21,12,21C12,21,12,19,12,19C12,19,12,19,12,19ZM5,12C5,8.13401,8.13401,5,12,5C12,5,12,3,12,3C7.02944,3,3,7.02944,3,12C3,12,5,12,5,12C5,12,5,12,5,12ZM12,5C15.866,5,19,8.13401,19,12C19,12,21,12,21,12C21,7.02944,16.970599999999997,3,12,3C12,3,12,5,12,5C12,5,12,5,12,5Z" fill="#FFFFFF" fill-opacity="1"/></g><g><path d="M21.05272169113159,6.464232720947265C21.05272169113159,6.464232720947265,21.91872169113159,5.964222720947266,21.91872169113159,5.964222720947266C21.91872169113159,5.964222720947266,21.05272169113159,6.464232720947265,21.05272169113159,6.464232720947265C21.05272169113159,6.464232720947265,21.05272169113159,6.464232720947265,21.05272169113159,6.464232720947265ZM2.0001816911315915,17.464182720947264C2.0001816911315915,17.464182720947264,2.866211691131592,16.964182720947264,2.866211691131592,16.964182720947264C2.866211691131592,16.964182720947264,2.0001816911315915,17.464182720947264,2.0001816911315915,17.464182720947264C2.0001816911315915,17.464182720947264,2.0001816911315915,17.464182720947264,2.0001816911315915,17.464182720947264ZM16.83822169113159,4.612977720947265C16.293221691131592,4.702432720947265,15.923921691131591,5.216752720947266,16.01342169113159,5.761742720947265C16.10282169113159,6.306742720947266,16.617121691131594,6.676022720947266,17.162121691131592,6.586572720947266C17.162121691131592,6.586572720947266,16.83822169113159,4.612977720947265,16.83822169113159,4.612977720947265C16.83822169113159,4.612977720947265,16.83822169113159,4.612977720947265,16.83822169113159,4.612977720947265ZM4.723241691131592,13.399712720947266C5.104751691131592,13.000372720947265,5.090311691131592,12.367372720947266,4.690971691131592,11.985862720947265C4.291641691131591,11.604352720947265,3.6586416911315918,11.618802720947265,3.2771316911315918,12.018132720947266C3.2771316911315918,12.018132720947266,4.723241691131592,13.399712720947266,4.723241691131592,13.399712720947266C4.723241691131592,13.399712720947266,4.723241691131592,13.399712720947266,4.723241691131592,13.399712720947266ZM20.18672169113159,6.964232720947265C20.262321691131593,7.095162720947266,20.32872169113159,7.372442720947266,20.138921691131593,7.914102720947266C19.95042169113159,8.451712720947265,19.54832169113159,9.122402720947266,18.91092169113159,9.881622720947266C17.641621691131594,11.393362720947266,15.583221691131591,13.086152720947265,13.026421691131592,14.562282720947266C13.026421691131592,14.562282720947266,14.026421691131592,16.294382720947265,14.026421691131592,16.294382720947265C16.73092169113159,14.732982720947266,18.987921691131593,12.900272720947266,20.442621691131592,11.167642720947265C21.16712169113159,10.304682720947266,21.729221691131592,9.423462720947265,22.026321691131592,8.575562720947266C22.322021691131592,7.731712720947266,22.39542169113159,6.7898927209472655,21.91872169113159,5.964222720947266C21.91872169113159,5.964222720947266,20.18672169113159,6.964232720947265,20.18672169113159,6.964232720947265C20.18672169113159,6.964232720947265,20.18672169113159,6.964232720947265,20.18672169113159,6.964232720947265ZM13.026421691131592,14.562282720947266C10.469691691131592,16.038482720947265,7.974481691131592,16.974682720947264,6.030641691131592,17.318082720947267C5.054421691131592,17.490482720947266,4.272531691131592,17.503382720947265,3.712741691131592,17.397782720947266C3.1487416911315917,17.291282720947265,2.941801691131592,17.095182720947264,2.866211691131592,16.964182720947264C2.866211691131592,16.964182720947264,1.1341576911315918,17.964182720947264,1.1341576911315918,17.964182720947264C1.6108516911315918,18.789882720947265,2.463191691131592,19.197282720947264,3.3418616911315917,19.363082720947265C4.224731691131591,19.529682720947264,5.268901691131592,19.48358272094727,6.378521691131592,19.287582720947263C8.606381691131592,18.894082720947267,11.322021691131592,17.855782720947268,14.026421691131592,16.294382720947265C14.026421691131592,16.294382720947265,13.026421691131592,14.562282720947266,13.026421691131592,14.562282720947266C13.026421691131592,14.562282720947266,13.026421691131592,14.562282720947266,13.026421691131592,14.562282720947266ZM17.162121691131592,6.586572720947266C18.099621691131592,6.432682720947266,18.846421691131592,6.4304227209472655,19.379621691131593,6.538422720947265C19.914821691131593,6.646842720947266,20.112821691131593,6.836312720947266,20.18672169113159,6.964232720947265C20.18672169113159,6.964232720947265,21.91872169113159,5.964222720947266,21.91872169113159,5.964222720947266C21.45382169113159,5.158915720947266,20.63052169113159,4.7512087209472655,19.77662169113159,4.578233720947265C18.920721691131593,4.4048388209472655,17.910521691131592,4.4369588209472655,16.83822169113159,4.612977720947265C16.83822169113159,4.612977720947265,17.162121691131592,6.586572720947266,17.162121691131592,6.586572720947266C17.162121691131592,6.586572720947266,17.162121691131592,6.586572720947266,17.162121691131592,6.586572720947266ZM2.866211691131592,16.964182720947264C2.780061691131592,16.814982720947263,2.7079816911315917,16.468982720947267,3.0051716911315918,15.782382720947266C3.2942616911315916,15.114382720947265,3.866581691131592,14.296392720947265,4.723241691131592,13.399712720947266C4.723241691131592,13.399712720947266,3.2771316911315918,12.018132720947266,3.2771316911315918,12.018132720947266C2.330101691131592,13.009392720947266,1.5872676911315917,14.023172720947265,1.1697026911315918,14.987982720947265C0.7602273911315918,15.934082720947266,0.5899876911315918,17.021682720947265,1.1341576911315918,17.964182720947264C1.1341576911315918,17.964182720947264,2.866211691131592,16.964182720947264,2.866211691131592,16.964182720947264C2.866211691131592,16.964182720947264,2.866211691131592,16.964182720947264,2.866211691131592,16.964182720947264Z" fill="#FFFFFF" fill-opacity="1"/></g></g></svg>