<svg xmlns="http://www.w3.org/2000/svg" xmlns:xlink="http://www.w3.org/1999/xlink" fill="none" version="1.1" width="24" height="24" viewBox="0 0 24 24"><defs><clipPath id="master_svg0_0_807"><rect x="0" y="0" width="24" height="24" rx="0"/></clipPath></defs><g clip-path="url(#master_svg0_0_807)"><g><path d="M16,10C16,13.3137,13.3137,16,10,16C10,16,10,18,10,18C14.4183,18,18,14.4183,18,10C18,10,16,10,16,10C16,10,16,10,16,10ZM10,16C6.68629,16,4,13.3137,4,10C4,10,2,10,2,10C2,14.4183,5.58172,18,10,18C10,18,10,16,10,16C10,16,10,16,10,16ZM4,10C4,6.68629,6.68629,4,10,4C10,4,10,2,10,2C5.58172,2,2,5.58172,2,10C2,10,4,10,4,10C4,10,4,10,4,10ZM10,4C13.3137,4,16,6.68629,16,10C16,10,18,10,18,10C18,5.58172,14.4183,2,10,2C10,2,10,4,10,4C10,4,10,4,10,4Z" fill="#FFFFFF" fill-opacity="1"/></g><g><path d="M15.707110953674317,14.292892953674317C15.316580953674316,13.902370253674317,14.683416953674316,13.902370253674317,14.292892953674317,14.292892953674317C13.902370253674317,14.683416953674316,13.902370253674317,15.316580953674316,14.292892953674317,15.707110953674317C14.292892953674317,15.707110953674317,15.707110953674317,14.292892953674317,15.707110953674317,14.292892953674317C15.707110953674317,14.292892953674317,15.707110953674317,14.292892953674317,15.707110953674317,14.292892953674317ZM20.292890953674316,21.707110953674317C20.683420953674315,22.09763095367432,21.31658095367432,22.09763095367432,21.707110953674317,21.707110953674317C22.09763095367432,21.31658095367432,22.09763095367432,20.683420953674315,21.707110953674317,20.292890953674316C21.707110953674317,20.292890953674316,20.292890953674316,21.707110953674317,20.292890953674316,21.707110953674317C20.292890953674316,21.707110953674317,20.292890953674316,21.707110953674317,20.292890953674316,21.707110953674317ZM14.292892953674317,15.707110953674317C14.292892953674317,15.707110953674317,20.292890953674316,21.707110953674317,20.292890953674316,21.707110953674317C20.292890953674316,21.707110953674317,21.707110953674317,20.292890953674316,21.707110953674317,20.292890953674316C21.707110953674317,20.292890953674316,15.707110953674317,14.292892953674317,15.707110953674317,14.292892953674317C15.707110953674317,14.292892953674317,14.292892953674317,15.707110953674317,14.292892953674317,15.707110953674317C14.292892953674317,15.707110953674317,14.292892953674317,15.707110953674317,14.292892953674317,15.707110953674317Z" fill="#FFFFFF" fill-opacity="1"/></g></g></svg>