<svg xmlns="http://www.w3.org/2000/svg" xmlns:xlink="http://www.w3.org/1999/xlink" fill="none" version="1.1" width="24" height="24" viewBox="0 0 24 24"><defs><clipPath id="master_svg0_0_1060"><rect x="0" y="0" width="24" height="24" rx="0"/></clipPath></defs><g clip-path="url(#master_svg0_0_1060)"><g><path d="M2,19C2,19.55228,2.447715,20,3,20C3.55228,20,4,19.55228,4,19C4,19,2,19,2,19C2,19,2,19,2,19ZM14,19C14,19.55228,14.4477,20,15,20C15.5523,20,16,19.55228,16,19C16,19,14,19,14,19C14,19,14,19,14,19ZM4,19C4,18.33381,4.405060000000001,17.60829,5.31206,17.00362C6.21207,16.40361,7.51303,16,9,16C9,16,9,14,9,14C7.17326,14,5.47422,14.491816,4.20266,15.33952C2.9380889999999997,16.18257,2,17.45705,2,19C2,19,4,19,4,19C4,19,4,19,4,19ZM9,16C10.48697,16,11.78793,16.40361,12.6879,17.00362C13.5949,17.60829,14,18.33381,14,19C14,19,16,19,16,19C16,17.45705,15.0619,16.18257,13.7973,15.33952C12.5258,14.491816,10.82674,14,9,14C9,14,9,16,9,16C9,16,9,16,9,16Z" fill="#FFFFFF" fill-opacity="1"/></g><g><path d="M18,16C18,16.55228,18.447715,17,19,17C19.55228,17,20,16.55228,20,16C20,16,18,16,18,16C18,16,18,16,18,16ZM20,10C20,9.447715,19.55228,9,19,9C18.447715,9,18,9.447715,18,10C18,10,20,10,20,10C20,10,20,10,20,10ZM20,16C20,16,20,10,20,10C20,10,18,10,18,10C18,10,18,16,18,16C18,16,20,16,20,16C20,16,20,16,20,16Z" fill="#FFFFFF" fill-opacity="1"/></g><g><path d="M16,12C15.447715,12,15,12.447715,15,13C15,13.55228,15.447715,14,16,14C16,14,16,12,16,12C16,12,16,12,16,12ZM22,14C22.55228,14,23,13.55228,23,13C23,12.447716,22.55228,12,22,12C22,12,22,14,22,14C22,14,22,14,22,14ZM16,14C16,14,22,14,22,14C22,14,22,12,22,12C22,12,16,12,16,12C16,12,16,14,16,14C16,14,16,14,16,14Z" fill="#FFFFFF" fill-opacity="1"/></g><g><path d="M12,8C12,9.65685,10.65685,11,9,11C9,11,9,13,9,13C11.761420000000001,13,14,10.761420000000001,14,8C14,8,12,8,12,8C12,8,12,8,12,8ZM9,11C7.34315,11,6,9.65685,6,8C6,8,4,8,4,8C4,10.761420000000001,6.23858,13,9,13C9,13,9,11,9,11C9,11,9,11,9,11ZM6,8C6,6.34315,7.34315,5,9,5C9,5,9,3,9,3C6.23858,3,4,5.23858,4,8C4,8,6,8,6,8C6,8,6,8,6,8ZM9,5C10.65685,5,12,6.34315,12,8C12,8,14,8,14,8C14,5.23858,11.761420000000001,3,9,3C9,3,9,5,9,5C9,5,9,5,9,5Z" fill="#FFFFFF" fill-opacity="1"/></g></g></svg>