<svg xmlns="http://www.w3.org/2000/svg" xmlns:xlink="http://www.w3.org/1999/xlink" fill="none" version="1.1" width="24" height="24" viewBox="0 0 24 24"><defs><clipPath id="master_svg0_0_1035"><rect x="0" y="0" width="24" height="24" rx="0"/></clipPath></defs><g clip-path="url(#master_svg0_0_1035)"><g><path d="M5,19C5,19.55228,5.447715,20,6,20C6.55228,20,7,19.55228,7,19C7,19,5,19,5,19C5,19,5,19,5,19ZM17,19C17,19.55228,17.447699999999998,20,18,20C18.552300000000002,20,19,19.55228,19,19C19,19,17,19,17,19C17,19,17,19,17,19ZM7,19C7,18.33381,7.405060000000001,17.60829,8.312059999999999,17.00362C9.21207,16.40361,10.51303,16,12,16C12,16,12,14,12,14C10.173259999999999,14,8.474219999999999,14.491816,7.20266,15.33952C5.938089,16.18257,5,17.45705,5,19C5,19,7,19,7,19C7,19,7,19,7,19ZM12,16C13.48697,16,14.78793,16.40361,15.6879,17.00362C16.594900000000003,17.60829,17,18.33381,17,19C17,19,19,19,19,19C19,17.45705,18.0619,16.18257,16.7973,15.33952C15.5258,14.491816,13.82674,14,12,14C12,14,12,16,12,16C12,16,12,16,12,16Z" fill="#FFFFFF" fill-opacity="1"/></g><g><path d="M15,8C15,9.65685,13.65685,11,12,11C12,11,12,13,12,13C14.761420000000001,13,17,10.761420000000001,17,8C17,8,15,8,15,8C15,8,15,8,15,8ZM12,11C10.34315,11,9,9.65685,9,8C9,8,7,8,7,8C7,10.761420000000001,9.238579999999999,13,12,13C12,13,12,11,12,11C12,11,12,11,12,11ZM9,8C9,6.34315,10.34315,5,12,5C12,5,12,3,12,3C9.238579999999999,3,7,5.23858,7,8C7,8,9,8,9,8C9,8,9,8,9,8ZM12,5C13.65685,5,15,6.34315,15,8C15,8,17,8,17,8C17,5.23858,14.761420000000001,3,12,3C12,3,12,5,12,5C12,5,12,5,12,5Z" fill="#FFFFFF" fill-opacity="1"/></g></g></svg>